<?xml version="1.0" standalone="no"?>
<!DOCTYPE svg PUBLIC "-//W3C//DTD SVG 20010904//EN"
 "http://www.w3.org/TR/2001/REC-SVG-20010904/DTD/svg10.dtd">
<svg version="1.0" xmlns="http://www.w3.org/2000/svg"
 width="120.000000pt" height="120.000000pt" viewBox="0 0 120.000000 120.000000"
 preserveAspectRatio="xMidYMid meet">
<metadata>
Created by potrace 1.11, written by Peter Selinger 2001-2013
</metadata>
<g transform="translate(0.000000,120.000000) scale(0.100000,-0.100000)"
fill="#000000" stroke="none">
<path d="M866 958 c3 -13 15 -40 25 -60 26 -50 49 -152 49 -214 0 -110 -52
-326 -96 -391 l-17 -27 -10 25 c-5 13 -12 98 -16 189 -5 127 -11 172 -24 197
-19 35 -44 53 -76 53 -18 0 -21 -6 -21 -41 0 -53 -44 -275 -71 -356 -43 -132
-53 -88 -44 197 8 256 4 277 -60 307 -32 16 -40 15 -137 -5 -132 -28 -181 -29
-209 -1 -25 25 -34 19 -25 -17 10 -39 57 -81 99 -89 20 -4 76 -1 123 7 l87 14
-7 -203 c-7 -196 -7 -205 14 -248 23 -48 66 -78 103 -73 28 4 70 86 95 187
l19 74 12 -79 c20 -136 59 -184 135 -170 77 15 173 148 211 291 8 33 15 101
15 151 0 149 -45 260 -116 290 -50 21 -67 19 -58 -8z"/>
</g>
</svg>
